<?xml version="1.0" encoding="utf-8"?>
<!-- Generator: Adobe Illustrator 16.0.3, SVG Export Plug-In . SVG Version: 6.00 Build 0)  -->
<!DOCTYPE svg PUBLIC "-//W3C//DTD SVG 1.1//EN" "http://www.w3.org/Graphics/SVG/1.1/DTD/svg11.dtd">
<svg version="1.1" id="Layer_1" xmlns="http://www.w3.org/2000/svg" xmlns:xlink="http://www.w3.org/1999/xlink" x="0px" y="0px"
	 width="1442px" height="552px" viewBox="0 0 1442 552" style="enable-background:new 0 0 1442 552;" xml:space="preserve">
<path style="fill:#868B92;" d="M479.959,64.043h-67.667l-1.305,6.54l-35.192,174.681c-1.938,10.019-4.479,18.514-7.473,25.286
	c-2.877,6.398-6.446,11.688-10.579,15.726c-4.051,3.943-8.619,6.696-14.016,8.496c-5.715,1.841-12.368,2.773-19.751,2.773
	c-6.08,0-11.3-0.615-15.511-1.825c-3.627-1.069-6.416-2.571-8.294-4.432c-2.007-2.042-3.469-4.518-4.458-7.568
	c-1.087-3.424-1.64-7.604-1.64-12.414c0-5.944,0.77-13.034,2.294-20.995L331.548,73.79l1.946-9.747h-67.458l-1.304,6.54
	l-34.957,175.114c-2.43,10.992-3.686,21.489-3.686,31.21c0,11.627,1.64,22.341,4.883,31.825c3.392,9.978,9.065,18.676,16.895,25.785
	c7.7,6.988,17.576,12.393,29.351,16.059c11.407,3.524,24.98,5.324,40.382,5.324c16.617,0,31.961-2.097,45.562-6.277
	c13.987-4.215,26.453-10.891,37.031-19.78c10.558-8.854,19.484-20.183,26.602-33.726c6.91-13.306,12.259-29.127,15.846-47.012
	L477.992,73.81L479.959,64.043z M240.412,64.043H74.722l-1.305,6.52l-8.472,42.061l-1.957,9.761h97.826l-25.98,129.015
	c-1.848,8.914-4.429,16.417-7.7,22.24c-3.143,5.642-6.771,10.18-10.755,13.407c-4.033,3.288-8.204,5.682-12.426,7.089
	c-4.35,1.447-8.384,2.178-12.031,2.178c-4.507,0-8.64-0.474-12.259-1.401c-3.618-0.913-7.048-2.199-10.231-3.827
	c-3.084-1.563-6.01-3.423-8.669-5.561c-2.719-2.178-5.211-4.417-7.425-6.777l-6.476-6.792l-5.812,7.387l-28.331,36.045l-4.3,5.48
	l4.744,5.113c4.33,4.613,9.352,8.813,14.967,12.474c5.536,3.565,11.595,6.635,18.091,9.151c6.416,2.456,13.236,4.356,20.186,5.662
	c7.097,1.326,14.414,2.042,21.808,2.042c15.459,0,29.656-2.279,42.141-6.736c12.475-4.417,23.577-10.654,32.998-18.494
	c9.361-7.825,17.281-17.188,23.498-27.822c6.208-10.558,10.647-22.16,13.177-34.538l38.445-193.951L240.412,64.043z
	 M689.591,140.979c0-9.822-1.87-19.447-5.557-28.735c-3.805-9.504-9.994-17.979-18.366-25.21
	c-8.246-7.109-19.059-12.812-32.128-16.931c-12.813-4.019-28.55-6.061-46.817-6.061h-83.424l-1.306,6.54l-54.221,270.802
	l-1.938,9.746h67.489l1.305-6.555l15.895-80.46h21.848c22.826,0,43.061-3.408,60.153-10.079
	c17.182-6.771,31.663-15.942,43.032-27.348c11.408-11.41,20.038-24.756,25.633-39.646
	C686.783,172.29,689.591,156.801,689.591,140.979z M615.083,171c-2.846,6.892-6.83,12.933-11.892,17.985
	c-5.072,5.087-11.359,9.146-18.684,12.081c-7.364,2.99-15.817,4.493-25.099,4.493H542.02l16.776-82.977h21.719
	c8.748,0,15.856,0.852,21.096,2.516c4.902,1.588,8.689,3.565,11.25,5.904c2.412,2.254,4.033,4.689,4.903,7.462
	c1.048,3.328,1.581,6.796,1.581,10.361C619.343,156.705,617.921,164.167,615.083,171z M1409.393,192.746
	c6.971-8.299,12.338-17.783,15.946-28.18c3.588-10.356,5.426-21.565,5.426-33.328c0-12.081-2.352-22.578-6.969-31.23
	c-4.685-8.692-11.397-15.822-20.018-21.267c-8.224-5.168-18.189-8.97-29.596-11.33c-11.003-2.259-23.311-3.383-36.597-3.383h-84.224
	l-1.305,6.554l-54.192,270.822l-1.957,9.726h67.487l1.296-6.555l20.838-105.529h1.176c4.261,0,8.067,0.494,11.239,1.482
	c2.719,0.852,5.171,2.395,7.475,4.754c2.551,2.612,4.913,6.394,7.048,11.249c2.383,5.425,4.538,12.393,6.494,20.849l16.558,67.553
	l1.504,6.197h74.378l-2.866-10.316l-18.645-67.235c-2.66-9.126-5.259-17.128-7.73-23.838c-2.491-6.817-5.19-12.853-7.958-17.904
	c-2.284-4.14-4.755-7.765-7.374-10.831c6.148-2.042,11.913-4.578,17.271-7.527C1394.012,207.892,1402.513,200.944,1409.393,192.746z
	 M1357.099,159.554c-2.412,4.951-5.793,9.01-10.301,12.418c-4.646,3.484-10.498,6.196-17.408,8.057
	c-7.255,1.981-15.47,2.955-24.467,2.955h-8.086l12.031-60.202h17.971c16.114,0,23.825,2.889,27.473,5.304
	c2.748,1.825,6.396,5.249,6.396,14.143C1360.708,148.764,1359.48,154.623,1357.099,159.554z M716.974,122.167l-34.393,170.838
	l-12.12,58.125h68.576l11.882-58.125l34.165-170.838l12.594-58.125h-69.149L716.974,122.167z M1204.753,184.149l1.858-9.681h-70.622
	l-1.858,9.681l-8.057,42.065l-1.276,6.61h70.622l1.275-6.61L1204.753,184.149z M1089.439,232.825l11.357-58.356l10.36-51.035
	h110.856l1.334-6.494l8.886-43.129l2.008-9.781h-179.224v0.015H815.878l-1.354,6.459l-8.888,42.499l-1.67,9.126h73.903
	l-43.497,219.277l-1.917,9.726h68.694l1.295-6.555l43.99-221.793h96.848L999.53,341.404l-1.958,9.746h179.186l1.295-6.595
	l8.481-43.094l1.928-9.721h-110.846L1089.439,232.825z"/>
<path style="fill:#868B92;" d="M228.896,495.372l12.366-61.785h15.471c7.929,0,13.899,1.704,17.933,5.092
	c4.023,3.383,6.04,8.632,6.04,15.762c0,1.25-0.08,2.813-0.238,4.674c-0.159,1.86-0.455,3.862-0.9,6
	c-0.445,2.138-1.058,4.396-1.858,6.736c-0.811,2.355-1.849,4.654-3.143,6.888c-1.286,2.239-2.868,4.356-4.716,6.378
	c-1.859,2.022-4.053,3.782-6.585,5.289c-2.53,1.502-5.437,2.713-8.708,3.62c-3.273,0.893-7,1.346-11.18,1.346H228.896z
	 M272.017,454.819c0-2.556-0.336-4.714-1.009-6.494c-0.681-1.785-1.69-3.252-3.044-4.376c-1.354-1.129-3.054-1.961-5.101-2.476
	c-2.046-0.535-4.418-0.797-7.117-0.797h-7.503l-9.49,47.41h5.713c3.085,0,5.833-0.358,8.254-1.089
	c2.422-0.711,4.568-1.705,6.447-2.95c1.867-1.245,3.479-2.692,4.833-4.316c1.354-1.644,2.512-3.388,3.471-5.208
	c0.958-1.825,1.74-3.686,2.332-5.566c0.593-1.901,1.058-3.721,1.394-5.465c0.326-1.745,0.544-3.368,0.663-4.871
	C271.967,457.113,272.017,455.848,272.017,454.819z"/>
<path style="fill:#868B92;" d="M362.5,495.372h-35.105l12.357-61.785h35.114l-1.464,7.089h-26.661l-3.875,19.155h25.624
	l-1.365,7.089h-25.623l-4.251,21.267h26.661L362.5,495.372z"/>
<path style="fill:#868B92;" d="M464.22,433.587l-33.353,61.785h-11.28l-8.115-61.785h9.054l5.061,41.647l1.216,12.202l6.416-12.202
	l21.61-41.647H464.22z"/>
<path style="fill:#868B92;" d="M524.433,495.372H489.33l12.357-61.785H536.8l-1.463,7.089h-26.661l-3.875,19.155h25.623
	l-1.364,7.089h-25.624l-4.25,21.267h26.661L524.433,495.372z"/>
<path style="fill:#868B92;" d="M608.914,495.372h-35.488l12.368-61.785h8.5l-10.953,54.6h26.987L608.914,495.372z"/>
<path style="fill:#868B92;" d="M669.177,496.224c-6.287,0-11.002-1.8-14.146-5.425c-3.153-3.605-4.725-8.733-4.725-15.383
	c0-3.171,0.286-6.438,0.85-9.807c0.563-3.343,1.422-6.595,2.569-9.762c1.147-3.146,2.59-6.121,4.321-8.929
	c1.729-2.793,3.746-5.249,6.059-7.351c2.313-2.098,4.933-3.741,7.86-4.987c2.925-1.23,6.148-1.84,9.677-1.84
	c6.258,0,10.964,1.82,14.108,5.445c3.153,3.62,4.715,8.733,4.715,15.348c0,3.187-0.286,6.454-0.851,9.822
	c-0.564,3.343-1.423,6.61-2.57,9.782c-1.147,3.166-2.58,6.141-4.29,8.949c-1.719,2.813-3.737,5.249-6.069,7.346
	c-2.324,2.103-4.943,3.747-7.85,4.972C675.919,495.614,672.706,496.224,669.177,496.224z M691.875,454.164
	c0-2.158-0.208-4.099-0.633-5.819c-0.425-1.745-1.098-3.211-2.007-4.417c-0.91-1.21-2.067-2.163-3.47-2.833
	c-1.394-0.691-3.084-1.029-5.07-1.029c-2.551,0-4.865,0.595-6.94,1.76c-2.076,1.149-3.925,2.692-5.537,4.593
	c-1.621,1.926-3.014,4.084-4.181,6.54c-1.167,2.435-2.125,4.931-2.876,7.502c-0.752,2.576-1.315,5.112-1.672,7.604
	c-0.366,2.516-0.543,4.774-0.543,6.796c0,2.138,0.207,4.059,0.632,5.778c0.425,1.724,1.088,3.191,1.987,4.417
	c0.89,1.23,2.047,2.178,3.46,2.854c1.422,0.655,3.114,0.988,5.101,0.988c2.551,0,4.864-0.575,6.94-1.719
	c2.075-1.17,3.914-2.698,5.535-4.599c1.622-1.901,3.015-4.079,4.182-6.514c1.166-2.456,2.125-4.951,2.876-7.522
	c0.751-2.557,1.315-5.113,1.672-7.604C691.696,458.424,691.875,456.166,691.875,454.164z"/>
<path style="fill:#868B92;" d="M745.621,473.197l-4.488,22.175h-8.392l12.356-61.785h16.944c2.798,0,5.418,0.297,7.85,0.872
	c2.441,0.595,4.576,1.508,6.395,2.733c1.83,1.23,3.264,2.793,4.3,4.714c1.039,1.921,1.554,4.24,1.554,6.913
	c0,1.941-0.268,3.917-0.801,5.879c-0.535,1.961-1.335,3.842-2.413,5.647c-1.068,1.8-2.392,3.484-3.984,5.067
	c-1.592,1.563-3.43,2.929-5.515,4.079c-2.096,1.149-4.459,2.062-7.078,2.712c-2.63,0.676-5.497,0.993-8.611,0.993H745.621z
	 M773.311,449.571c0-2.834-1.019-5.032-3.065-6.575c-2.046-1.542-5.11-2.319-9.202-2.319h-8.957l-5.051,25.432h7.453
	c2.48,0,4.676-0.262,6.583-0.776c1.898-0.515,3.549-1.205,4.953-2.078c1.404-0.872,2.56-1.86,3.489-2.97
	c0.93-1.129,1.681-2.299,2.245-3.524c0.563-1.23,0.968-2.476,1.205-3.726C773.202,451.809,773.311,450.64,773.311,449.571z"/>
<path style="fill:#868B92;" d="M868.073,495.372h-8.214l6.465-38.516l2.411-14.793l-4.625,8.597l-13.919,24.575h-5.803
	l-4.063-23.627l-0.939-9.544l-3.301,15.449l-8.591,37.86h-7.928l15.333-61.785h9.579l3.687,23.269l1.039,7.845l4.29-7.845
	l13.306-23.269h10.666L868.073,495.372z"/>
<path style="fill:#868B92;" d="M953.74,495.372h-35.104l12.357-61.785h35.114l-1.463,7.089h-26.661l-3.876,19.155h25.624
	l-1.364,7.089h-25.623l-4.25,21.267h26.661L953.74,495.372z"/>
<path style="fill:#868B92;" d="M1026.468,495.372h-10.528l-10.231-38.516l-2.837-12.394l-6.178,31.15l-3.964,19.759h-7.83
	l12.407-61.785h10.43l9.766,36.499l3.352,14.118l6.603-33.07l3.539-17.546h7.83L1026.468,495.372z"/>
<path style="fill:#868B92;" d="M1121.824,440.777h-18.258l-10.905,54.595h-8.49l10.893-54.595h-18.258l1.463-7.19h45.018
	L1121.824,440.777z"/>
</svg>
