<?xml version="1.0" encoding="utf-8"?>
<!-- Generator: Adobe Illustrator 16.0.3, SVG Export Plug-In . SVG Version: 6.00 Build 0)  -->
<!DOCTYPE svg PUBLIC "-//W3C//DTD SVG 1.1//EN" "http://www.w3.org/Graphics/SVG/1.1/DTD/svg11.dtd">
<svg version="1.1" id="Layer_1" xmlns="http://www.w3.org/2000/svg" xmlns:xlink="http://www.w3.org/1999/xlink" x="0px" y="0px"
	 width="1442px" height="552px" viewBox="0 0 1442 552" style="enable-background:new 0 0 1442 552;" xml:space="preserve">
<path style="fill:#868B92;" d="M712.587,397.819h-44.823h-56.141c0.018-4.338,0.105-8.867,0.181-13.356
	c0.087-4.47,0.163-8.901,0.184-13.102l19.501-1.021h0.057c0.614,0,5.05-0.362,5.05-5.696l-0.077-7.675
	c-0.393-40.753-0.806-83.753-1.575-130.358l-0.077-4.011h-3.993h-3.285h-2.881l-0.951,2.726
	c-23.611,67.309-43.563,114.755-61.951,157.394c-2.469,0.019-5.686,0.073-9.305,0.112c-6.434,0.098-14.125,0.229-20.971,0.249
	c-20.549-48.809-38.638-97.778-60.301-163.011l-0.922-2.804h-2.957h-3.688h-3.993l-0.087,4.011
	c-0.433,27.783-1.009,54.202-1.565,80.221c-0.452,21.549-0.904,42.79-1.296,64.319l-0.068,3.874l3.918,0.229l24.84,1.422
	c0,8.441-0.048,17.802-0.269,26.478h-48.922h-37.717v-26.478l17.457-1.001l0.845-0.034l0.739-0.386
	c2.881-1.441,3.504-3.664,3.504-5.276c0.345-54.725,1.152-129.591,2.037-190.72l0.038-3.918l-3.889-0.21l-18.677-1.036
	c0.019-4.817,0.106-9.844,0.192-14.832c0.076-4.778,0.163-9.536,0.182-14.064h95.972c12.04,32.389,36.333,103.572,54.193,155.957
	l2.976,8.729l0.951,2.76h2.909h3.274h2.861l0.97-2.721c7.729-21.739,15.978-45.057,24.158-68.193
	c12.213-34.559,24.293-68.711,34.288-96.533h88.099c-0.019,4.47-0.078,9.169-0.154,13.933c-0.086,5.027-0.191,10.107-0.21,14.983
	l-16.67,1.017h-0.047c-2.698,0-5.002,2.516-5.002,5.681c0.23,30.333,0.328,63.836,0.432,97.642
	c0.086,31.544,0.183,63.357,0.375,93.177l0.039,3.835l3.812,0.21l18.695,1.021C712.856,379.782,712.818,389.143,712.587,397.819
	L712.587,397.819z"/>
<path style="fill:#868B92;" d="M986.83,397.838h-45.225H879.71c0-8.906,0.038-17.998,0.288-26.884l16.362-1.016
	c1.488,0,3.12-0.845,4.139-2.247c1.055-1.456,1.325-3.356,0.72-5.139c-0.72-2.149-1.633-5.183-2.622-8.422
	c-1.891-6.121-3.994-13.068-5.655-17.196c-0.432-1.822-2.084-4.622-6.654-4.622l-75.855,0.845l-3.226,0.039l-0.701,3.107
	c-0.807,3.586-1.825,7.538-2.833,11.549c-1.574,6.16-3.168,12.433-4.158,17.675l-0.873,4.563l4.638,0.269l18.695,1.021
	c0,8.613-0.048,17.592-0.288,26.458h-53.829h-36.066c0.059-8.867,0.346-17.866,0.655-26.478l15.179-1.001
	c2.4,0,5.128-2.071,6.041-4.817c26.203-69.473,62.058-166.045,84.747-227.58c8.257-0.577,25.522-0.596,50.315-0.596
	c13.117,38.051,28.729,84.544,43.823,129.479c12.156,36.166,23.966,71.339,33.895,100.348l0.864,2.516l2.669,0.21l17.14,1.344
	C987.118,379.895,987.079,388.952,986.83,397.838L986.83,397.838z M845.998,205.389l-0.884,2.877
	c-5.703,18.344-11.58,37.455-17.225,55.853L817.23,298.75c-0.347,1.383-0.961,3.82,0.604,5.853l1.239,1.578l2.881,0.303h57.362h5.57
	l-1.681-5.295c-5.829-18.305-12.224-39.581-18.801-61.457c-3.12-10.435-6.28-21.011-9.467-31.446l-0.875-2.897h-3.015h-2.045
	H845.998L845.998,205.389z"/>
<path style="fill:#868B92;" d="M1163.035,398.659c-9.313-16.903-24.379-52.453-33.501-74.1l-3.639-8.593
	c-5.684-13.508-14.144-20.074-25.887-20.074c-4.859,0-8.776,0.367-10.726,1.017l-2.736,0.942l-0.018,2.917l-0.423,65.907
	l-0.019,3.879l3.86,0.21l18.147,0.997c-0.23,8.769-0.269,17.348-0.269,26.097h-54.539h-47.847
	c0.231-8.769,0.269-17.348,0.269-26.097l16.265-0.997c2.929,0,5.062-2.746,5.062-5.295l0.402-193.676l0.021-3.918l-3.947-0.132
	l-18.196-0.689c0-9.097,0.039-18.002,0.27-26.864c35.776-0.518,65.485-0.767,90.739-0.767c22.939,0,35.565,0,59.301,5.618
	c34.279,7.504,55.46,37.993,55.46,61.979c0,30.2-17.61,54.778-48.297,67.48l-2.507,1.036v2.706v2.477v2.57l2.295,1.094
	c15.114,7.215,24.322,26.341,39.571,58.061l4.83,10.054c4.052,9.189,7.806,16.365,15.603,17.035l15.958,1.998
	c-0.018,4.279-0.104,8.613-0.181,12.99c-0.087,4.431-0.173,8.901-0.193,13.356c-3.148,0.034-6.865,0.093-10.619,0.171
	c-5.627,0.098-11.331,0.19-15.248,0.19c-4.687,0-16.323,0.118-27.539,0.21C1176.133,398.547,1167.74,398.625,1163.035,398.659
	L1163.035,398.659z M1104.502,164.46c-7.106,0-11.273,0.425-14.374,1.422l-2.775,0.898l-0.02,2.917l-0.806,96.649l-0.048,3.225
	l3.159,0.786c2.112,0.479,4.647,0.479,10.783,0.479c28.902,0,48.327-20.225,48.327-50.328
	C1148.747,189.077,1129.322,164.46,1104.502,164.46L1104.502,164.46z"/>
<path style="fill:#868B92;" d="M1324.502,401.922c-14.202,0-41.99-1.534-59.379-7.137c-2.785-22.067-5.281-43.84-7.758-65.311
	l-0.548-4.626c12.108-2.55,24.735-4.719,35.633-6.121l10.523,37.206c1,3.107,2.439,5.12,4.264,6.082
	c7.739,5.447,17.813,8.344,29.142,8.344c9.766,0,23.093-2.399,31.265-9.131c7.403-5.892,11.34-14.641,11.34-25.232
	c0-23.601-13.155-28.496-44.871-40.274c-46.905-17.611-70.699-43.459-70.699-76.845c0-29.761,16.621-49.082,26.522-57.964
	c17.868-16.214,47.903-25.159,84.554-25.159c23.15,0,41.769,3.053,50.708,6.16c2.188,22.604,4.08,45.648,5.636,68.613
	c-10.275,1.52-21.941,2.843-33.252,4.147l-1.546,0.171l-8.565-34.593c-0.586-1.769-1.229-3.341-2.746-4.797
	c-5.896-4.934-14.519-7.733-23.343-7.733c-10.668,0-19.751,2.765-27.02,8.173c-3.851,2.975-12.704,11.417-12.704,26.615
	c0,23.293,11.063,28.183,49.461,41.5c46.348,15.848,66.108,37.724,66.108,73.142c0,25.135-10.485,47.856-28.767,62.302
	C1389.066,394.785,1362.41,401.922,1324.502,401.922L1324.502,401.922z"/>
<path style="fill-rule:evenodd;clip-rule:evenodd;fill:#868B92;" d="M150.488,169.316c0,41.48-33.646,75.116-75.154,75.116
	c-41.51,0-75.174-33.635-75.174-75.116c0-41.466,33.665-75.101,75.174-75.101C116.843,94.215,150.488,127.85,150.488,169.316z"/>
<path style="fill-rule:evenodd;clip-rule:evenodd;fill:#868B92;" d="M150.488,368.346c0,41.485-33.646,75.101-75.154,75.101
	c-41.51,0-75.174-33.615-75.174-75.101c0-41.466,33.665-75.101,75.174-75.101C116.843,293.245,150.488,326.88,150.488,368.346z"/>
<path style="fill-rule:evenodd;clip-rule:evenodd;fill:#868B92;" d="M313.981,268.838c0,41.466-33.656,75.101-75.164,75.101
	c-41.509,0-75.175-33.635-75.175-75.101c0-41.481,33.666-75.116,75.175-75.116C280.325,193.723,313.981,227.357,313.981,268.838z"/>
</svg>
