<?xml version="1.0" encoding="utf-8"?>
<!-- Generator: Adobe Illustrator 16.0.3, SVG Export Plug-In . SVG Version: 6.00 Build 0)  -->
<!DOCTYPE svg PUBLIC "-//W3C//DTD SVG 1.1//EN" "http://www.w3.org/Graphics/SVG/1.1/DTD/svg11.dtd">
<svg version="1.1" id="Layer_1" xmlns="http://www.w3.org/2000/svg" xmlns:xlink="http://www.w3.org/1999/xlink" x="0px" y="0px"
	 width="1442px" height="552px" viewBox="0 0 1442 552" style="enable-background:new 0 0 1442 552;" xml:space="preserve">
<path style="fill:#868B92;" d="M532.088,188.242c-7.184-3.116-14.806-4.681-22.645-4.681c-7.723,0-14.823,1.196-21.066,3.554
	c-11.448,4.308-20.719,10.875-27.692,19.56c-4.34-5.855-9.581-10.721-15.68-14.544c-9.145-5.688-19.213-8.569-29.956-8.569
	c-14.696,0-26.994,4.141-36.728,12.358v-3.403v-6.683h-6.688h-21.417h-6.688v6.683v142.907v6.7h6.688h21.417h6.688v-6.7v-85.462
	c0-10.755,3.045-18.887,9.396-24.931c6.007-5.843,13.35-8.672,22.478-8.672c8.412,0,15.108,2.846,20.391,8.569
	c5.61,6.413,8.328,14.514,8.328,24.751v85.745v6.7h6.68h21.433h6.679v-6.7v-85.462c0-10.755,3.063-18.887,9.406-24.931
	c5.988-5.843,13.358-8.672,22.477-8.672c8.395,0,15.1,2.846,20.391,8.569c5.619,6.43,8.345,14.514,8.345,24.751v85.745v6.7h6.679
	h21.419h6.678v-6.7v-86.302c0-18.84-5.989-34.786-17.867-47.53C545.699,195.851,539.254,191.354,532.088,188.242z"/>
<path style="fill:#868B92;" d="M655.091,183.561c-23.151,0-42.297,7.913-56.901,23.585c-13.678,14.935-20.61,34.044-20.61,56.824
	s6.932,41.906,20.644,56.875c14.587,15.621,33.716,23.551,56.867,23.551c23.149,0,42.279-7.93,56.899-23.602
	c13.678-14.917,20.618-34.044,20.618-56.824s-6.94-41.889-20.652-56.871C697.378,191.474,678.241,183.561,655.091,183.561z
	 M686.543,297.98c-7.696,9.156-17.976,13.602-31.452,13.602c-13.46,0-23.756-4.445-31.462-13.636
	c-7.588-8.924-11.256-20.053-11.256-33.976s3.668-25.034,11.28-33.993c7.689-9.173,17.977-13.636,31.438-13.636
	c13.476,0,23.756,4.462,31.461,13.67c7.587,8.925,11.264,20.036,11.264,33.958S694.14,289.021,686.543,297.98z"/>
<path style="fill:#868B92;" d="M818.96,183.561c-23.15,0-42.289,7.913-56.908,23.585c-13.67,14.935-20.602,34.044-20.602,56.824
	s6.932,41.906,20.643,56.875c14.587,15.621,33.716,23.551,56.867,23.551c23.15,0,42.279-7.93,56.9-23.602
	c13.679-14.917,20.609-34.044,20.609-56.824s-6.93-41.889-20.643-56.871C861.248,191.474,842.11,183.561,818.96,183.561z
	 M850.404,297.98c-7.688,9.156-17.985,13.602-31.444,13.602c-13.477,0-23.765-4.445-31.47-13.636
	c-7.58-8.924-11.264-20.053-11.264-33.976s3.684-25.034,11.306-33.993c7.671-9.173,17.951-13.636,31.427-13.636
	c13.459,0,23.747,4.462,31.478,13.67c7.563,8.925,11.239,20.036,11.239,33.958S858.001,289.021,850.404,297.98z"/>
<path style="fill:#868B92;" d="M1006.837,188.006c-7.604-2.962-16.682-4.445-26.986-4.445c-10.768,0-20.534,2.744-29.022,8.2
	c-3.02,1.934-5.872,4.038-8.563,6.31v-5.555v-6.683h-6.68h-21.417h-6.688v6.683v142.907v6.7h6.688h21.417h6.68v-6.7v-82.312
	c0-10.995,3.448-19.714,10.498-26.603c7.15-6.833,15.647-10.15,25.943-10.15c9.977,0,17.842,3.146,24.008,9.645
	c6.259,6.584,9.304,15.355,9.304,26.822v82.599v6.7h6.679h21.417h6.679v-6.7v-83.169c0-20.812-6.628-37.898-19.566-50.664
	C1021.424,195.581,1014.577,191.003,1006.837,188.006z"/>
<path style="fill:#868B92;" d="M1139.457,183.561c-17.893,0-32.774,4.883-44.442,14.544v-5.589v-6.666h-6.68h-21.426h-6.671v6.666
	v199.491v6.704h6.671h21.426h6.68v-6.704v-62.293c11.525,9.765,25.935,14.682,43.011,14.682c23.395,0,42.381-7.96,56.371-23.619
	c13.836-15.321,20.861-34.431,20.861-56.807s-7.025-41.469-20.846-56.755C1180.407,191.509,1161.908,183.561,1139.457,183.561z
	 M1105.134,297.945c-7.571-8.924-11.264-20.036-11.264-33.976c0-13.923,3.693-25.034,11.28-33.993
	c7.697-9.173,17.985-13.618,31.453-13.618c13.351,0,23.865,4.497,32.119,13.755c7.924,8.921,11.751,19.984,11.751,33.856
	s-3.828,24.953-11.735,33.86c-8.261,9.259-18.776,13.769-32.135,13.769C1123.136,311.599,1112.848,307.136,1105.134,297.945z"/>
<path style="fill:#868B92;" d="M1236.566,185.833h-6.679v6.683v142.907v6.7h6.679h21.425h6.68v-6.7V192.516v-6.683h-6.68H1236.566z"
	/>
<path style="fill:#868B92;" d="M1235.716,133.811h-6.697v6.7v28v6.683h6.697h23.125h6.688v-6.683v-28v-6.7h-6.688H1235.716z"/>
<path style="fill:#868B92;" d="M1400.225,283.855h-4.535l-1.674,4.222c-2.793,7.09-7.1,12.663-13.14,17.091
	c-5.938,4.325-12.584,6.413-20.34,6.413c-14.898,0-26.171-4.493-34.474-13.803c-8.252-9.092-12.265-20.156-12.265-33.809
	c0-13.636,4.013-24.7,12.324-33.856c3.718-4.227,8.378-7.596,13.854-10.052c5.502-2.461,12.417-3.721,20.56-3.721
	c7.739,0,14.402,2.122,20.34,6.43c6.04,4.445,10.347,10.018,13.14,17.091l1.674,4.227h4.535h23.142h9.078l-2.692-8.672
	c-4.812-15.44-13.678-28.035-26.473-37.461c-13.292-9.563-29.216-14.395-47.32-14.395c-22.795,0-41.657,7.93-56.041,23.585
	c-13.864,15.119-20.896,34.229-20.896,56.824c0,22.612,7.033,41.722,20.904,56.841c14.394,15.655,33.253,23.585,56.033,23.585
	c18.104,0,34.028-4.831,47.387-14.446c12.728-9.409,21.602-21.986,26.406-37.41l2.692-8.685h-9.078H1400.225z"/>
<path style="fill:#868B92;" d="M1154.186,429.991c-2.776,3.267-6.057,4.9-9.817,4.9c-2.305,0-4.333-0.42-6.099-1.277
	c-1.767-0.845-3.247-2.041-4.45-3.605c-1.22-1.53-2.128-3.399-2.734-5.589c-0.623-2.169-0.926-4.613-0.926-7.271
	c0-2.829,0.37-5.371,1.118-7.647c0.741-2.255,1.768-4.192,3.072-5.774c1.311-1.582,2.843-2.795,4.609-3.635
	c1.758-0.845,3.668-1.248,5.738-1.248c1.867,0,3.583,0.287,5.157,0.875c1.572,0.592,3.01,1.449,4.332,2.61v-15.757h6.082v47.496
	h-6.082V429.991z M1154.186,424.131v-16.293c-2.735-2.795-5.762-4.18-9.102-4.18c-2.608,0-4.693,1.132-6.25,3.369
	c-1.557,2.238-2.347,5.624-2.347,10.121c0,4.257,0.74,7.472,2.22,9.645c1.473,2.19,3.517,3.284,6.125,3.284
	c1.716,0,3.331-0.489,4.896-1.466C1151.283,427.633,1152.772,426.154,1154.186,424.131z"/>
<path style="fill:#868B92;" d="M1210.37,434.891c-2.499,0-4.769-0.403-6.839-1.213c-2.06-0.789-3.818-1.967-5.299-3.519
	c-1.48-1.547-2.625-3.434-3.432-5.671c-0.816-2.225-1.229-4.767-1.229-7.626c0-2.812,0.396-5.32,1.187-7.527
	c0.798-2.22,1.892-4.124,3.305-5.675c1.413-1.564,3.121-2.761,5.114-3.583c1.985-0.828,4.164-1.23,6.545-1.23
	c2.464,0,4.694,0.403,6.688,1.213c1.994,0.823,3.676,2.002,5.09,3.554c1.397,1.547,2.474,3.434,3.23,5.654
	c0.757,2.242,1.136,4.767,1.136,7.596v1.479h-25.893c0.143,1.989,0.497,3.721,1.06,5.187c0.564,1.466,1.304,2.675,2.23,3.652
	c0.925,0.96,1.985,1.685,3.179,2.173c1.204,0.489,2.507,0.725,3.928,0.725c1.002,0,2.011-0.15,3.012-0.42
	c1.01-0.27,1.91-0.673,2.717-1.196c0.809-0.54,1.456-1.196,1.961-1.972c0.504-0.771,0.765-1.667,0.798-2.675h6.394
	c-0.269,1.766-0.825,3.348-1.666,4.728c-0.858,1.385-1.935,2.546-3.238,3.472c-1.304,0.939-2.818,1.646-4.517,2.135
	C1214.131,434.655,1212.314,434.891,1210.37,434.891z M1219.396,413.526c-0.487-3.266-1.589-5.723-3.331-7.39
	c-1.733-1.65-3.853-2.478-6.343-2.478c-1.229,0-2.381,0.202-3.448,0.608c-1.085,0.403-2.054,1.025-2.887,1.835
	c-0.832,0.823-1.539,1.834-2.119,3.082c-0.58,1.226-0.984,2.675-1.221,4.342H1219.396z"/>
<path style="fill:#868B92;" d="M1267.431,434.891c-9.347,0-14.267-3.687-14.771-11.077h6.148c0.026,4.175,2.869,6.263,8.556,6.263
	c1.27,0,2.389-0.15,3.365-0.42c0.958-0.27,1.775-0.656,2.423-1.145c0.655-0.489,1.144-1.081,1.479-1.736
	c0.337-0.656,0.505-1.38,0.505-2.173c0-0.806-0.134-1.479-0.379-1.984c-0.26-0.506-0.748-0.943-1.48-1.329
	c-0.731-0.373-1.741-0.759-3.036-1.127c-1.295-0.373-2.979-0.844-5.064-1.384c-2.052-0.502-3.802-1.008-5.274-1.513
	c-1.473-0.506-2.683-1.127-3.635-1.835c-0.95-0.724-1.648-1.616-2.095-2.662c-0.462-1.059-0.689-2.387-0.689-4.008
	c0-1.415,0.303-2.709,0.891-3.939c0.606-1.209,1.464-2.255,2.583-3.146c1.11-0.875,2.464-1.582,4.045-2.087
	c1.582-0.506,3.34-0.742,5.283-0.742c9.035,0,13.627,3.198,13.779,9.632h-6.049c-0.21-3.215-2.641-4.818-7.259-4.818
	c-1.043,0-1.985,0.103-2.861,0.304c-0.875,0.202-1.64,0.506-2.287,0.875c-0.648,0.39-1.145,0.862-1.506,1.432
	c-0.362,0.558-0.547,1.213-0.547,1.955c0,0.673,0.085,1.23,0.252,1.667c0.17,0.42,0.573,0.823,1.213,1.191
	c0.639,0.373,1.572,0.742,2.817,1.098c1.245,0.369,2.953,0.806,5.106,1.346c2.086,0.506,3.894,1.012,5.434,1.565
	c1.532,0.54,2.81,1.179,3.828,1.955c1.018,0.776,1.774,1.702,2.264,2.812c0.487,1.093,0.739,2.473,0.739,4.124
	c0,1.564-0.328,3.014-0.976,4.325c-0.648,1.316-1.564,2.478-2.75,3.455c-1.186,0.99-2.633,1.749-4.332,2.306
	C1271.452,434.621,1269.542,434.891,1267.431,434.891z"/>
<path style="fill:#868B92;" d="M1314.909,393.19h-6.082v-6.619h6.082V393.19z M1314.909,434.067h-6.082v-34.366h6.082V434.067z"/>
<path style="fill:#868B92;" d="M1375.25,431.406c0,11.076-4.989,16.619-14.966,16.619c-2.154,0-4.088-0.236-5.821-0.708
	c-1.734-0.489-3.197-1.179-4.408-2.07c-1.211-0.909-2.136-2.006-2.784-3.301c-0.647-1.299-0.967-2.761-0.967-4.394h6.325
	c0,3.785,2.49,5.688,7.479,5.688c1.463,0,2.75-0.167,3.878-0.519c1.126-0.356,2.077-0.96,2.843-1.856
	c0.774-0.892,1.354-2.071,1.75-3.566c0.386-1.483,0.588-3.37,0.588-5.642v-1.667c-2.776,3.267-6.049,4.9-9.809,4.9
	c-2.305,0-4.34-0.42-6.098-1.277c-1.768-0.845-3.256-2.041-4.468-3.605c-1.203-1.53-2.12-3.399-2.726-5.589
	c-0.614-2.169-0.924-4.613-0.924-7.271c0-2.829,0.377-5.371,1.119-7.647c0.748-2.255,1.766-4.192,3.079-5.774
	c1.304-1.582,2.843-2.795,4.602-3.635c1.766-0.845,3.668-1.248,5.737-1.248c1.868,0,3.592,0.287,5.157,0.875
	c1.573,0.592,3.021,1.449,4.333,2.61v-2.627h6.083V431.406z M1369.167,424.131v-16.293c-2.734-2.795-5.762-4.18-9.102-4.18
	c-2.607,0-4.694,1.132-6.251,3.369c-1.556,2.238-2.338,5.624-2.338,10.121c0,4.257,0.732,7.472,2.213,9.645
	c1.472,2.19,3.516,3.284,6.124,3.284c1.708,0,3.331-0.489,4.896-1.466C1366.273,427.633,1367.754,426.154,1369.167,424.131z"/>
<path style="fill:#868B92;" d="M1410.067,404.048c1.514-1.753,3.13-3.048,4.854-3.905c1.724-0.879,3.525-1.299,5.391-1.299
	c7.773,0,11.66,4.244,11.66,12.727v22.496h-6.158v-22.209c0-1.415-0.117-2.627-0.353-3.635c-0.244-1.012-0.624-1.818-1.136-2.461
	c-0.514-0.639-1.169-1.093-1.977-1.38c-0.809-0.283-1.767-0.438-2.895-0.438c-3.112,0-6.242,1.817-9.388,5.474v24.648h-6.074
	v-34.366h6.074V404.048z"/>
<path style="fill:#868B92;" d="M88.06,361.015c40.36,4.998,77.61-19.041,90.867-55.748c0.194-0.501,0.337-1.042,0.514-1.564
	c-0.227,0.051-0.446,0.068-0.672,0.12c-4.729,1.564-9.767,2.439-15.034,2.439c-26.481,0-47.957-21.498-47.957-47.998
	c0-4.917,0.74-9.666,2.111-14.146c0.471-42.793,30.048-81.266,73.572-91.215c13.813-3.168,27.66-4.681,41.271-4.681
	c15.15,0,30.024,1.903,44.366,5.487c-28.173-30.572-68.526-49.733-113.363-49.733c-85.147,0-154.179,69.062-154.179,154.289
	c0,33.033,10.415,63.605,28.081,88.725c3.92,1.753,7.915,3.399,12.004,4.882C61.813,356.265,74.684,359.399,88.06,361.015z
	 M264.992,240.569c-22.402-29.213-59.928-39.853-93.114-29.582c12.248,2.104,22.881,8.821,30.074,18.351
	c1.69,1.346,3.44,2.658,5.004,4.124c31.791,29.243,40.32,77.566,17.986,116.661c-7.042,12.324-15.293,23.534-24.513,33.568
	c-10.196,11.081-21.585,20.674-33.834,28.776c58.195-1.063,108.483-34.366,133.821-82.818c-1.917-18.84-6.864-37.529-14.99-55.242
	C280.008,262.641,273.211,251.26,264.992,240.569z M287.512,166.234c-17.438-5.757-35.886-8.873-54.78-8.873
	c-12.938,0-26.086,1.449-39.234,4.462c-32.522,7.429-56.412,32.497-63.967,62.816c3.904-3.991,8.513-7.257,13.586-9.679
	c4.694-3.284,9.582-6.096,14.629-8.402c39.243-18.03,87.066-7.274,114.491,28.438c8.647,11.244,15.797,23.199,21.485,35.592
	c6.46,14.073,11.002,28.72,13.728,43.569c6.73-17.339,10.473-36.179,10.473-55.894C317.922,223.766,306.608,191.929,287.512,166.234
	z M193.699,377.497c8.766-9.529,16.63-20.203,23.301-31.906c17.473-30.542,14.015-67.295-5.771-93.778
	c0.287,2.122,0.471,4.261,0.471,6.451c0,15.707-7.562,29.595-19.213,38.353c-0.622,0.604-1.286,1.162-1.96,1.698
	c-0.824,3.438-1.833,6.803-3.021,10.069c-14.679,40.641-55.89,67.21-100.559,61.723c-13.19-1.616-25.875-4.647-37.956-8.822
	c25.338,28.249,60.946,47.055,100.947,50.625C166.039,402.955,180.862,391.454,193.699,377.497z"/>
</svg>
