<?xml version="1.0" encoding="utf-8"?>
<!-- Generator: Adobe Illustrator 16.0.3, SVG Export Plug-In . SVG Version: 6.00 Build 0)  -->
<!DOCTYPE svg PUBLIC "-//W3C//DTD SVG 1.1//EN" "http://www.w3.org/Graphics/SVG/1.1/DTD/svg11.dtd">
<svg version="1.1" id="Layer_1" xmlns="http://www.w3.org/2000/svg" xmlns:xlink="http://www.w3.org/1999/xlink" x="0px" y="0px"
	 width="1442px" height="552px" viewBox="0 0 1442 552" style="enable-background:new 0 0 1442 552;" xml:space="preserve">
<path style="fill:#868B92;" d="M1394.098,327.735c-22.071,0-40.036-17.961-40.036-39.993c0-22.083,17.965-40.007,40.036-40.007
	c22.063,0,40,17.924,40,40.007C1434.098,309.774,1416.161,327.735,1394.098,327.735z M1394.098,252.866
	c-19.242,0-34.897,15.624-34.897,34.876c0,19.202,15.655,34.844,34.897,34.844c19.206,0,34.87-15.642,34.87-34.844
	C1428.968,268.489,1413.303,252.866,1394.098,252.866z"/>
<path style="fill:#868B92;" d="M1379.876,266.514c3.186-0.53,7.96-0.911,13.226-0.911c6.528,0,11.083,0.985,14.213,3.448
	c2.61,2.101,4.053,5.149,4.053,9.183c0,5.623-3.979,9.452-7.768,10.823v0.2c3.057,1.241,4.774,4.182,5.87,8.216
	c1.369,4.944,2.748,10.693,3.587,12.394h-10.169c-0.72-1.315-1.762-4.819-3.058-10.242c-1.187-5.475-3.068-6.971-7.121-7.045h-2.993
	v17.288h-9.84V266.514z M1389.716,285.423h3.907c4.966,0,7.896-2.481,7.896-6.33c0-4.052-2.747-6.06-7.312-6.134
	c-2.409,0-3.77,0.2-4.491,0.33V285.423z"/>
<path style="fill:#868B92;" d="M357.868,463.783c0,0-15.464-6.515-27.677-10.567c-4.948-1.659-7.541-3.56-8.991-5.256
	c-4.555-18.435-21.096-32.144-40.949-32.144c-15.363,0-28.671,8.253-36.084,20.48l-1.752-0.219
	c4.546-12.008,13.418-21.502,24.536-25.991c-2.701-20.754-20.263-36.851-41.751-36.851c-3.889,0-7.577,0.692-11.183,1.682
	c4.646,7.9,7.512,16.46,7.512,25.168c0,11.752-4.683,22.594-12.478,31.354c3.943-7.737,6.372-16.353,6.372-25.661
	c0-31.447-25.513-56.945-56.951-56.945c-31.456,0-56.978,25.499-56.978,56.945c0,9.838,2.729,18.965,7.129,27.032
	c-8.644-9.016-14.029-20.28-14.029-32.725c0-5.679,1.287-11.297,3.194-16.757c-6.682-4.289-14.595-6.845-23.14-6.845
	c-23.824,0-43.131,19.332-43.131,43.111c0,11.409,4.51,21.702,11.721,29.407c-1.597,1.348-3.916,2.718-7.631,3.959
	c-12.241,4.071-27.695,10.568-27.695,10.568h113.38l-0.228,0.255H357.868z"/>
<path style="fill:#868B92;" d="M229.251,281.701c-2.182-28.747-16.832-46.123-29.31-68.354
	C209.17,105.971,167.07,79.269,167.07,79.269s-38.055,26.702-28.818,134.078c-12.496,22.232-27.147,39.607-29.301,68.354
	c34.715-13.561,34.715-13.561,34.715-13.561s18.091,8.909,25.357,8.671v0.019h0.055h0.074v-0.019
	c10.443,0.07,25.376-8.671,25.376-8.671S194.528,268.141,229.251,281.701z"/>
<path style="fill:#868B92;" d="M229.251,281.701c-2.182-28.747-16.832-46.123-29.31-68.354
	C209.17,105.971,167.07,79.269,167.07,79.269s-38.055,26.702-28.818,134.078c-12.496,22.232-27.147,39.607-29.301,68.354
	c34.715-13.561,34.715-13.561,34.715-13.561s18.091,8.909,25.357,8.671v0.019h0.055h0.074v-0.019
	c10.443,0.07,25.376-8.671,25.376-8.671S194.528,268.141,229.251,281.701z"/>
<path style="fill:#868B92;" d="M191.552,310.304l-8.816-25.48c-2.483,2.008-8.901,5.86-11.447,6.022
	c-2.52-0.163-9.119-4.015-11.602-6.022l-8.819,25.48l9.978-10.735l-6.245,39.333l10.498-9.838l0,0
	c0.858-0.144,2.173,5.479,3.058,5.479c0.647,0,1.825,6.004,2.501,6.079c0.657-0.075,2.958-6.079,3.605-6.079
	c0.877,0,2.191-5.623,3.068-5.479l0,0l10.479,9.838l-6.234-39.333L191.552,310.304z"/>
<path style="fill:#868B92;" d="M442.065,460.679h-30.287l34.376-166.036h44.947c7.193,0,13.373,0.256,18.549,0.748
	c5.177,0.493,9.704,1.334,13.592,2.482c10.926,3.141,18.933,8.104,24.016,14.894c5.095,6.79,7.631,14.764,7.631,23.947
	c0,6.696-0.922,12.993-2.793,18.872c-1.853,5.86-4.783,11.153-8.799,15.879c-4.017,4.712-9.146,8.797-15.4,12.282
	c-6.243,3.49-13.755,6.208-22.518,8.197v0.493l36.859,68.243H508.72l-33.263-64.265h-20.119L442.065,460.679z M460.687,370.953
	h11.666c5.55,0,10.497-0.181,14.897-0.548c4.383-0.363,8.317-1.055,11.794-2.045c7.859-2.151,14.057-5.637,18.613-10.493
	c4.555-4.837,6.828-11.097,6.828-18.797c0-3.964-0.904-7.449-2.73-10.423c-1.825-2.974-4.802-5.163-8.945-6.571
	c-1.973-0.655-4.545-1.166-7.687-1.496c-3.148-0.33-7.074-0.493-11.792-0.493H471.24L460.687,370.953z"/>
<path style="fill:#868B92;" d="M657.901,291.539c9.685,0,18.475,1.352,26.372,4.033c7.904,2.7,14.669,6.701,20.301,12.045
	c5.632,5.331,9.967,11.957,13.035,19.862c3.058,7.881,4.591,17.008,4.591,27.357c0,6.445-0.684,13.597-2.053,21.465
	c-1.37,7.868-3.578,15.805-6.645,23.872c-3.058,8.086-7.029,15.954-11.904,23.584c-4.893,7.663-10.826,14.438-17.818,20.368
	c-6.992,5.916-15.125,10.661-24.391,14.271c-9.265,3.597-19.817,5.386-31.647,5.386c-9.686,0-18.476-1.333-26.381-4.034
	c-7.904-2.681-14.667-6.696-20.292-12.027c-5.632-5.349-9.968-11.957-13.035-19.861c-3.066-7.881-4.591-17.008-4.591-27.357
	c0-6.459,0.685-13.616,2.036-21.483c1.369-7.849,3.587-15.824,6.645-23.872c3.067-8.067,7.038-15.935,11.922-23.584
	c4.875-7.645,10.817-14.434,17.809-20.35c7.002-5.911,15.125-10.679,24.39-14.271C635.519,293.347,646.071,291.539,657.901,291.539z
	 M655.793,317.237c-6.7,0-12.871,1.152-18.494,3.467c-5.632,2.319-10.744,5.479-15.335,9.494c-4.591,4.015-8.644,8.704-12.158,14.09
	c-3.523,5.367-6.463,11.116-8.817,17.25c-2.356,6.111-4.146,12.463-5.331,19.053c-1.206,6.571-1.808,13.012-1.808,19.276
	c0,6.292,0.83,11.827,2.481,16.59c1.653,4.745,4.036,8.741,7.139,11.971c3.104,3.234,6.891,5.642,11.355,7.245
	c4.474,1.626,9.476,2.431,15.025,2.431c6.701,0,12.871-1.152,18.494-3.467c5.622-2.319,10.734-5.479,15.335-9.513
	c4.591-3.997,8.645-8.704,12.159-14.071c3.505-5.386,6.463-11.134,8.817-17.264c2.355-6.115,4.127-12.468,5.332-19.039
	c1.205-6.571,1.797-13.012,1.797-19.309c0-12.556-3.203-22.069-9.611-28.528C675.756,320.453,666.957,317.237,655.793,317.237z"/>
<path style="fill:#868B92;" d="M840.2,317.237c-7.119,0-13.783,1.022-19.991,3.104c-6.207,2.063-11.775,4.908-16.695,8.56
	c-4.929,3.634-9.228,7.942-12.907,12.905c-3.688,4.963-6.764,10.368-9.247,16.19c-2.483,5.836-4.346,11.952-5.587,18.36
	c-1.241,6.422-1.862,12.887-1.862,19.42c0,8.379,1.133,15.275,3.415,20.735c2.282,5.456,5.395,9.782,9.374,12.975
	c3.962,3.174,8.626,5.404,13.958,6.696c5.34,1.278,11.026,1.919,17.069,1.919c6.628,0.074,13.428-0.511,20.419-1.808
	c7.002-1.278,14.002-3.123,21.04-5.512l-5.458,26.795c-6.708,2.314-13.911,3.922-21.597,4.852
	c-7.695,0.915-14.642,1.352-20.858,1.352c-10.014,0-19.178-1.259-27.495-3.778c-8.315-2.519-15.453-6.422-21.405-11.734
	c-5.96-5.293-10.607-12.069-13.911-20.354c-3.305-8.267-4.966-18.105-4.966-29.532c0-8.104,0.813-16.372,2.428-24.82
	c1.607-8.434,4.089-16.59,7.449-24.513c3.34-7.886,7.559-15.331,12.651-22.32c5.094-6.994,11.155-13.105,18.183-18.31
	c7.03-5.219,15.19-9.327,24.464-12.357c9.265-3.011,19.278-4.526,30.032-4.526c5.878,0,12.597,0.548,20.173,1.608
	c7.568,1.097,14.624,2.7,21.16,4.856l-5.094,24.82c-6.188-1.827-12.03-3.211-17.499-4.159
	C851.985,317.711,846.225,317.237,840.2,317.237z"/>
<path style="fill:#868B92;" d="M881.697,460.679l34.377-166.036h30.287l-15.271,73.828h0.501l68.763-73.828h37.489l-79.314,83.522
	l52.751,82.514h-34.879l-48.042-76.691h-0.492l-15.883,76.691H881.697z"/>
<path style="fill:#868B92;" d="M1065.083,435.236h78.328l-5.212,25.443h-108.606l34.376-166.036h104.144l-5.33,25.443h-73.729
	l-8.946,42.93h63.304l-5.212,25.443h-63.303L1065.083,435.236z"/>
<path style="fill:#868B92;" d="M1244.67,460.679h-30.279l29.165-140.593h-52.14l5.093-25.443h134.677l-5.211,25.443h-52.131
	L1244.67,460.679z"/>
</svg>
